<?xml version="1.0" encoding="UTF-8"?>
<svg version="1.1" xmlns="http://www.w3.org/2000/svg" width="57" height="57">
<path d="M0 0 C3.10485394 2.50113234 5.46336676 5.23923352 7.25 8.8125 C7.81614151 14.5871434 6.46748904 18.14122432 3.25 22.8125 C1.37153349 25.05075011 -0.65269761 27.09258939 -2.75 29.125 C-3.27078125 29.64900391 -3.7915625 30.17300781 -4.328125 30.71289062 C-8.65218726 34.97689647 -11.59106669 37.09030914 -17.6875 37.25 C-21.32119076 37.20169392 -23.2884718 36.92867322 -25.875 34.3125 C-26.49375 33.4875 -27.1125 32.6625 -27.75 31.8125 C-25.6875 29.25 -25.6875 29.25 -22.75 26.8125 C-21.1103125 27.121875 -21.1103125 27.121875 -19.4375 27.4375 C-15.86978345 28.18359012 -15.86978345 28.18359012 -13.69921875 26.515625 C-11.62686643 24.68914499 -9.68458762 22.78351291 -7.75 20.8125 C-6.76 19.966875 -5.77 19.12125 -4.75 18.25 C-2.44760577 15.90698098 -2.44760577 15.90698098 -2.4375 12.5 C-2.540625 11.613125 -2.64375 10.72625 -2.75 9.8125 C-4.44712207 8.50390351 -4.44712207 8.50390351 -6.75 7.8125 C-9.70843601 9.1437962 -11.45272197 10.42713959 -13.4375 13 C-17.14067008 15.90248466 -21.21303542 15.12419986 -25.75 14.8125 C-25.24902832 10.58862115 -22.89131396 8.58509203 -19.9375 5.6875 C-19.06480469 4.81867187 -18.19210938 3.94984375 -17.29296875 3.0546875 C-12.08028703 -1.54144047 -6.50234253 -2.80782973 0 0 Z " fill="#B4FF00" transform="translate(48.75,2.1875)"/>
<path d="M0 0 C1.2684375 -0.02513672 1.2684375 -0.02513672 2.5625 -0.05078125 C5.45330535 0.38005993 6.82826275 1.40720274 9 3.3125 C8.6130131 5.55702405 8.08035336 7.18304181 6.875 9.125 C6.25625 9.516875 5.6375 9.90875 5 10.3125 C3.948125 10.065 2.89625 9.8175 1.8125 9.5625 C-1.86747468 8.94503973 -1.86747468 8.94503973 -4.05859375 10.6171875 C-6.12930961 12.44129636 -8.07339423 14.33742616 -10 16.3125 C-10.969375 17.199375 -11.93875 18.08625 -12.9375 19 C-14.93523457 21.23988422 -15.90051063 22.32781881 -16 25.3125 C-14.32923381 28.58132925 -14.32923381 28.58132925 -11.25 28.875 C-7.62438889 28.24749039 -7.4334575 27.91729183 -5.25 25.25 C-3.23456247 22.94895233 -2.50719212 22.34676974 0.6015625 22.13671875 C3.10892035 22.40864347 5.53626103 22.77690457 8 23.3125 C5.36511375 29.32165384 0.3580851 33.77252606 -5.0625 37.3125 C-8.6768802 38.5429273 -11.2027047 38.78716191 -15 38.3125 C-19.77655522 35.87739342 -22.56489342 33.08905522 -25 28.3125 C-25.66815321 22.9672743 -24.68631164 19.90161573 -22 15.3125 C-19.98970614 12.9176739 -17.80326712 10.74067586 -15.5625 8.5625 C-14.98951172 7.98628906 -14.41652344 7.41007812 -13.82617188 6.81640625 C-9.49123512 2.53634211 -6.30852777 0.02884997 0 0 Z " fill="#B4FF00" transform="translate(26,17.6875)"/>
</svg>
